<?xml version="1.0" encoding="UTF-8"?>
<svg id="Layer_1" data-name="Layer 1" xmlns="http://www.w3.org/2000/svg" xmlns:xlink="http://www.w3.org/1999/xlink" viewBox="0 0 898.92 867.57">
  <defs>
    <clipPath id="clippath">
      <rect width="898.92" height="867.57" style="fill: none;"/>
    </clipPath>
    <clipPath id="clippath-1">
      <rect x="235.94" y="242.99" width="394.51" height="417.98" transform="translate(-2.58 2.49) rotate(-.33)" style="fill: none;"/>
    </clipPath>
    <clipPath id="clippath-2">
      <polygon points="244.53 236.07 641.42 248.52 625.74 667.36 228.84 654.91 244.53 236.07" style="fill: none;"/>
    </clipPath>
    <clipPath id="clippath-3">
      <polygon points="244.53 236.07 641.42 248.52 625.74 667.36 228.84 654.91 244.53 236.07" style="fill: none;"/>
    </clipPath>
  </defs>
  <g style="clip-path: url(#clippath);">
    <path d="M622.97,434.36c72.44,14.9,135.03,27.51,197.44,40.75,20.52,3.24,40.25,8.52,59.21,15.86,25.19,11.46,22.85,32.93-2.2,44.57-7.87,2.92-16.05,4.93-24.56,6.01s-17.03,1.22-25.58.39c-77.85-.91-155.86,2.54-233.33-8.03-24.19-2.2-48.46-3.38-72.78-3.51,13.46,34.01,38.82,57.13,60.93,81.86,30.79,34.39,62.1,68.39,92.58,102.95,12.22,13.85,28.58,28.42,7.15,45.95-19.73,16.15-39.47,5.87-57.39-2.55-26.55-12.56-51.58-26.97-75.12-43.22-23.53-16.24-45.2-34.09-65-53.52-8.04-7.83-12.11-20.53-33.31-19.69-9.57,59.29-26.83,116.96-51.79,173.01-5.59,11.82-10.95,23.75-17.45,35.18-.56,1.33-1.25,2.6-2.07,3.83-.83,1.22-1.76,2.38-2.82,3.47s-2.21,2.09-3.48,3.02c-1.25.93-2.6,1.75-4.03,2.48-1.43.74-2.93,1.36-4.48,1.87-1.56.52-3.16.92-4.8,1.21s-3.3.46-4.98.51c-1.67.06-3.34-.02-5-.2-1.9-.18-3.78-.49-5.6-.94-1.84-.46-3.61-1.04-5.32-1.77-1.71-.72-3.32-1.56-4.85-2.52-1.53-.97-2.95-2.04-4.25-3.21s-2.47-2.43-3.5-3.79c-1.03-1.35-1.92-2.77-2.64-4.24-.73-1.48-1.3-3.01-1.7-4.57-.41-1.57-.64-3.15-.7-4.75-1.74-15.96-.62-31.77,3.36-47.44,12.03-62.6,23.3-125.3,34.55-186.38-15.65-12.34-27.53-3.73-39.33-.82-81.94,20.21-163.75,40.85-245.75,60.82-25.28,6.18-56.86,16.81-69.47-11.1-12.09-26.61,18.02-38.41,41.55-48.97,55.28-24.81,110.9-49.05,166.19-73.81,14.62-6.54,32.51-8.96,45.69-26.54-49.56-7.68-96.66-14.59-143.55-22.42-22.42-3.33-44.39-8.12-65.91-14.37-1.86-.42-3.65-1-5.38-1.71-1.73-.72-3.37-1.56-4.91-2.53-1.54-.98-2.95-2.07-4.25-3.26-1.29-1.2-2.44-2.48-3.43-3.86-1-1.38-1.84-2.83-2.52-4.34-.67-1.51-1.17-3.07-1.49-4.67-.32-1.59-.45-3.19-.41-4.81.04-1.62.26-3.22.67-4.8.34-1.59.84-3.14,1.51-4.65.66-1.5,1.49-2.95,2.47-4.34.97-1.38,2.08-2.68,3.34-3.91,1.25-1.22,2.63-2.33,4.12-3.35,1.5-1.01,3.08-1.91,4.77-2.69,1.68-.77,3.43-1.42,5.26-1.94,1.82-.51,3.68-.89,5.58-1.13,1.89-.23,3.81-.32,5.73-.28,30.39-.49,60.83-.23,91.25-.26h89.58c5.23-17.41-8.02-26.22-15.7-36.55-33.19-42.75-63.33-86.97-90.42-132.64-8.51-15.12-14.81-30.89,3.43-43.52,20.37-14.07,40.67-6.36,56.05,6.64,46.79,39.59,92.38,80.2,138.05,120.68,19.4,17.19,37.9,35.08,61.86,57.37,21.32-38.14,23.12-74.33,26.59-109.06,7.97-79.74,31.12-156.75,52.68-234.1,5.89-21.17,12.91-48.52,47.59-45.16,33.34,3.25,36.5,30.93,36.66,52.65,1.39,95.66-6.95,190.73-24.99,285.21-.48,4.6-.52,9.21-.12,13.83,21.57-1.48,33.74-14.87,47.78-24.99,57.56-39.59,119.99-72.72,187.33-99.37,8.41-3.74,17.13-6.86,26.16-9.38,1.76-.62,3.57-1.12,5.43-1.49,1.85-.38,3.73-.64,5.64-.77,1.89-.14,3.8-.16,5.7-.05,1.9.1,3.79.33,5.66.68,1.86.35,3.68.82,5.46,1.4,1.77.59,3.49,1.28,5.13,2.08,1.65.81,3.23,1.72,4.7,2.72,1.49,1.01,2.86,2.1,4.15,3.29,12.32,11.65,7,23.45-.36,35.32-11.03,15.08-24.76,28.18-41.17,39.3-53.93,42.22-108.17,84.19-171.11,133.1Z" style="fill: #b4b4b4;"/>
  </g>
  <g style="clip-path: url(#clippath-1);">
    <g style="clip-path: url(#clippath-2);">
      <g style="clip-path: url(#clippath-3);">
        <path d="M511.36,455.62c31.3,8.17,58.34,15.11,85.28,22.34,8.88,1.84,17.39,4.66,25.51,8.46,10.77,5.87,9.36,16.18-1.76,21.45-7.08,2.65-14.41,3.45-21.96,2.4-33.9-1.5-67.96-.91-101.51-7.06-10.5-1.39-21.05-2.29-31.64-2.69,5.25,16.57,15.88,28.06,25.06,40.29,12.79,17,25.82,33.81,38.48,50.88,5.07,6.85,11.94,14.1,2.28,22.25-8.88,7.51-17.3,2.28-24.96-2.02-22.86-12.94-42.62-29.13-59.29-48.54-3.36-3.89-4.91-10.06-14.16-9.95-5.24,28.44-13.8,56-25.68,82.68-2.65,5.62-5.21,11.3-8.25,16.72-.53,1.27-1.29,2.42-2.26,3.44-.96,1.04-2.09,1.88-3.36,2.55-1.28.67-2.65,1.13-4.1,1.36s-2.9.23-4.35,0c-1.66-.21-3.24-.71-4.71-1.45-1.48-.75-2.76-1.71-3.87-2.89-1.1-1.18-1.94-2.5-2.53-3.96-.58-1.47-.88-2.97-.87-4.53-.47-7.72.31-15.33,2.32-22.82,6.37-30.02,12.41-60.07,18.41-89.37-6.6-6.17-11.92-2.18-17.11-.94-36.07,8.63-72.08,17.45-108.17,25.96-11.12,2.64-25.08,7.33-30.05-6.3-4.8-12.99,8.54-18.26,18.98-23.04,24.53-11.2,49.2-22.13,73.74-33.3,6.49-2.96,14.32-3.88,20.38-12.18-21.45-4.38-41.84-8.35-62.13-12.77-9.71-1.9-19.19-4.51-28.44-7.83-.8-.23-1.58-.53-2.32-.89-.75-.36-1.45-.8-2.1-1.28-.65-.5-1.25-1.03-1.79-1.63-.54-.59-1.02-1.23-1.43-1.91s-.75-1.38-1.01-2.13c-.26-.74-.45-1.5-.56-2.26-.1-.77-.14-1.55-.09-2.33.05-.79.18-1.55.38-2.31.35-1.53.98-2.95,1.89-4.28s2.03-2.45,3.38-3.4,2.83-1.64,4.45-2.1c1.62-.45,3.27-.62,4.95-.52,13.25.18,26.51.72,39.77,1.12,13.1.41,26.21.83,39.02,1.23,2.59-8.32-3.02-12.75-6.18-17.83-13.68-21.06-26.01-42.78-36.98-65.17-3.44-7.4-5.9-15.09,2.28-20.93,9.12-6.5,17.83-2.51,24.29,3.97,19.67,19.72,38.8,39.91,57.96,60.06,8.14,8.55,15.88,17.43,25.92,28.5,9.97-18.09,11.41-35.52,13.55-52.2,4.91-38.34,16.39-75.14,27.18-112.12,2.95-10.13,6.5-23.22,21.55-21.12,14.46,2.02,15.34,15.41,15.02,25.89-1.13,46.13-6.48,91.84-16.05,137.13-.28,2.22-.38,4.44-.29,6.67,9.42-.42,14.95-6.71,21.27-11.39,25.79-18.3,53.58-33.41,83.4-45.34,3.73-1.68,7.59-3.07,11.57-4.17,1.56-.54,3.19-.86,4.86-.94s3.31.07,4.93.46,3.14,1,4.56,1.82c1.41.83,2.66,1.83,3.74,3.02,5.16,5.79,2.63,11.4-.79,17.03-5.08,7.11-11.28,13.24-18.64,18.37-24.26,19.62-48.65,39.11-76.95,61.82Z" style="fill: #b1e3ff;"/>
      </g>
    </g>
  </g>
</svg>